<svg width="350" height="165" viewBox="0 0 350 165" fill="none" xmlns="http://www.w3.org/2000/svg">
<g filter="url(#filter0_f_147_145)">
<rect x="39" y="39" width="272" height="73" rx="12" fill="url(#paint0_linear_147_145)"/>
<rect x="39" y="39" width="272" height="73" rx="12" fill="url(#paint1_radial_147_145)" fill-opacity="0.02"/>
</g>
<g filter="url(#filter1_d_147_145)">
<rect x="39" y="39" width="272" height="73" rx="12" fill="url(#paint2_linear_147_145)" shape-rendering="crispEdges"/>
<rect x="39" y="39" width="272" height="73" rx="12" fill="url(#paint3_radial_147_145)" fill-opacity="0.02" shape-rendering="crispEdges"/>
</g>
<path d="M99.1726 75.646C99.1726 74.314 99.4126 73.162 99.8926 72.19C100.385 71.218 101.087 70.468 101.999 69.94C102.911 69.4 103.997 69.13 105.257 69.13C106.505 69.13 107.585 69.4 108.497 69.94C109.409 70.468 110.111 71.218 110.603 72.19C111.107 73.162 111.359 74.308 111.359 75.628C111.359 76.96 111.107 78.118 110.603 79.102C110.111 80.074 109.409 80.83 108.497 81.37C107.585 81.91 106.505 82.18 105.257 82.18C103.997 82.18 102.911 81.91 101.999 81.37C101.099 80.83 100.403 80.074 99.9106 79.102C99.4186 78.118 99.1726 76.966 99.1726 75.646ZM101.603 75.646C101.603 77.074 101.909 78.19 102.521 78.994C103.133 79.798 104.045 80.2 105.257 80.2C106.433 80.2 107.339 79.798 107.975 78.994C108.611 78.19 108.929 77.074 108.929 75.646C108.929 74.206 108.611 73.09 107.975 72.298C107.351 71.506 106.445 71.11 105.257 71.11C104.045 71.11 103.133 71.506 102.521 72.298C101.909 73.09 101.603 74.206 101.603 75.646ZM117.877 82.18C116.941 82.18 116.119 81.988 115.411 81.604C114.715 81.22 114.175 80.674 113.791 79.966C113.407 79.246 113.215 78.394 113.215 77.41C113.215 76.426 113.407 75.586 113.791 74.89C114.187 74.194 114.733 73.66 115.429 73.288C116.125 72.916 116.941 72.73 117.877 72.73C118.477 72.73 119.059 72.826 119.623 73.018C120.199 73.198 120.667 73.462 121.027 73.81L120.343 75.376C120.019 75.076 119.653 74.854 119.245 74.71C118.849 74.554 118.459 74.476 118.075 74.476C117.271 74.476 116.641 74.728 116.185 75.232C115.741 75.736 115.519 76.468 115.519 77.428C115.519 78.388 115.741 79.126 116.185 79.642C116.641 80.158 117.271 80.416 118.075 80.416C118.447 80.416 118.831 80.344 119.227 80.2C119.635 80.056 120.007 79.834 120.343 79.534L121.027 81.082C120.655 81.43 120.181 81.7 119.605 81.892C119.041 82.084 118.465 82.18 117.877 82.18ZM124.907 82V74.674H121.793V72.91H130.271V74.674H127.139V82H124.907ZM135.246 82.18C134.454 82.18 133.758 81.994 133.158 81.622C132.558 81.238 132.09 80.692 131.754 79.984C131.418 79.276 131.25 78.43 131.25 77.446C131.25 76.462 131.418 75.622 131.754 74.926C132.09 74.218 132.558 73.678 133.158 73.306C133.758 72.922 134.454 72.73 135.246 72.73C136.014 72.73 136.686 72.922 137.262 73.306C137.85 73.678 138.24 74.182 138.432 74.818H138.234L138.432 72.91H140.592C140.556 73.282 140.52 73.66 140.484 74.044C140.46 74.428 140.448 74.806 140.448 75.178V82H138.216L138.198 80.128H138.414C138.222 80.752 137.832 81.25 137.244 81.622C136.656 81.994 135.99 82.18 135.246 82.18ZM135.876 80.452C136.584 80.452 137.154 80.206 137.586 79.714C138.018 79.21 138.234 78.454 138.234 77.446C138.234 76.438 138.018 75.688 137.586 75.196C137.154 74.704 136.584 74.458 135.876 74.458C135.168 74.458 134.598 74.704 134.166 75.196C133.734 75.688 133.518 76.438 133.518 77.446C133.518 78.454 133.728 79.21 134.148 79.714C134.58 80.206 135.156 80.452 135.876 80.452ZM143.072 82V72.91H147.914C149.054 72.91 149.888 73.12 150.416 73.54C150.944 73.948 151.208 74.53 151.208 75.286C151.208 75.862 151.016 76.342 150.632 76.726C150.248 77.11 149.738 77.35 149.102 77.446V77.194C149.882 77.242 150.482 77.47 150.902 77.878C151.322 78.286 151.532 78.814 151.532 79.462C151.532 80.242 151.232 80.86 150.632 81.316C150.032 81.772 149.18 82 148.076 82H143.072ZM145.16 80.614H147.842C148.37 80.614 148.772 80.506 149.048 80.29C149.336 80.074 149.48 79.756 149.48 79.336C149.48 78.916 149.336 78.598 149.048 78.382C148.772 78.166 148.37 78.058 147.842 78.058H145.16V80.614ZM145.16 76.672H147.644C148.124 76.672 148.496 76.57 148.76 76.366C149.024 76.15 149.156 75.85 149.156 75.466C149.156 75.082 149.024 74.788 148.76 74.584C148.496 74.38 148.124 74.278 147.644 74.278H145.16V76.672ZM153.496 82V72.91H155.53V79.786H154.99L160.156 72.91H162.01V82H159.976V75.106H160.534L155.35 82H153.496ZM166.532 82V74.674H163.418V72.91H171.896V74.674H168.764V82H166.532ZM173.289 82V72.91H175.521V75.952H177.915C179.127 75.952 180.039 76.21 180.651 76.726C181.263 77.23 181.569 77.962 181.569 78.922C181.569 79.546 181.425 80.092 181.137 80.56C180.849 81.016 180.429 81.37 179.877 81.622C179.337 81.874 178.683 82 177.915 82H173.289ZM175.521 80.524H177.609C178.221 80.524 178.689 80.398 179.013 80.146C179.337 79.882 179.499 79.486 179.499 78.958C179.499 78.43 179.337 78.046 179.013 77.806C178.701 77.554 178.233 77.428 177.609 77.428H175.521V80.524ZM191.736 82.18C190.92 82.18 190.152 82.084 189.432 81.892C188.724 81.7 188.13 81.424 187.65 81.064L188.28 79.588C188.724 79.912 189.24 80.158 189.828 80.326C190.428 80.494 191.058 80.578 191.718 80.578C192.486 80.578 193.044 80.476 193.392 80.272C193.752 80.056 193.932 79.744 193.932 79.336C193.932 78.952 193.794 78.664 193.518 78.472C193.242 78.268 192.834 78.166 192.294 78.166H189.936V76.618H192.078C192.57 76.618 192.948 76.522 193.212 76.33C193.476 76.138 193.608 75.868 193.608 75.52C193.608 75.148 193.446 74.854 193.122 74.638C192.81 74.422 192.294 74.314 191.574 74.314C190.95 74.314 190.38 74.392 189.864 74.548C189.348 74.692 188.862 74.908 188.406 75.196L187.794 73.792C188.286 73.444 188.88 73.18 189.576 73C190.284 72.82 191.052 72.73 191.88 72.73C193.092 72.73 194.022 72.952 194.67 73.396C195.318 73.84 195.642 74.47 195.642 75.286C195.642 75.838 195.45 76.312 195.066 76.708C194.694 77.104 194.19 77.35 193.554 77.446V77.194C194.298 77.242 194.886 77.464 195.318 77.86C195.75 78.256 195.966 78.79 195.966 79.462C195.966 80.29 195.6 80.95 194.868 81.442C194.136 81.934 193.092 82.18 191.736 82.18ZM201.515 82.18C200.723 82.18 200.027 81.994 199.427 81.622C198.827 81.238 198.359 80.692 198.023 79.984C197.687 79.276 197.519 78.43 197.519 77.446C197.519 76.462 197.687 75.622 198.023 74.926C198.359 74.218 198.827 73.678 199.427 73.306C200.027 72.922 200.723 72.73 201.515 72.73C202.283 72.73 202.955 72.922 203.531 73.306C204.119 73.678 204.509 74.182 204.701 74.818H204.503L204.701 72.91H206.861C206.825 73.282 206.789 73.66 206.753 74.044C206.729 74.428 206.717 74.806 206.717 75.178V82H204.485L204.467 80.128H204.683C204.491 80.752 204.101 81.25 203.513 81.622C202.925 81.994 202.259 82.18 201.515 82.18ZM202.145 80.452C202.853 80.452 203.423 80.206 203.855 79.714C204.287 79.21 204.503 78.454 204.503 77.446C204.503 76.438 204.287 75.688 203.855 75.196C203.423 74.704 202.853 74.458 202.145 74.458C201.437 74.458 200.867 74.704 200.435 75.196C200.003 75.688 199.787 76.438 199.787 77.446C199.787 78.454 199.997 79.21 200.417 79.714C200.849 80.206 201.425 80.452 202.145 80.452ZM208.585 82L209.971 79.606C210.211 79.198 210.505 78.874 210.853 78.634C211.213 78.382 211.585 78.256 211.969 78.256H212.365L212.347 78.454C211.279 78.454 210.457 78.22 209.881 77.752C209.305 77.284 209.017 76.6 209.017 75.7C209.017 74.812 209.311 74.128 209.899 73.648C210.499 73.156 211.375 72.91 212.527 72.91H217.045V82H214.993V78.796H213.967C213.595 78.796 213.265 78.898 212.977 79.102C212.701 79.306 212.467 79.57 212.275 79.894L211.087 82H208.585ZM212.959 77.338H214.993V74.368H212.959C212.347 74.368 211.885 74.5 211.573 74.764C211.273 75.028 211.123 75.388 211.123 75.844C211.123 76.324 211.273 76.696 211.573 76.96C211.885 77.212 212.347 77.338 212.959 77.338ZM219.607 82V72.91H224.449C225.589 72.91 226.423 73.12 226.951 73.54C227.479 73.948 227.743 74.53 227.743 75.286C227.743 75.862 227.551 76.342 227.167 76.726C226.783 77.11 226.273 77.35 225.637 77.446V77.194C226.417 77.242 227.017 77.47 227.437 77.878C227.857 78.286 228.067 78.814 228.067 79.462C228.067 80.242 227.767 80.86 227.167 81.316C226.567 81.772 225.715 82 224.611 82H219.607ZM221.695 80.614H224.377C224.905 80.614 225.307 80.506 225.583 80.29C225.871 80.074 226.015 79.756 226.015 79.336C226.015 78.916 225.871 78.598 225.583 78.382C225.307 78.166 224.905 78.058 224.377 78.058H221.695V80.614ZM221.695 76.672H224.179C224.659 76.672 225.031 76.57 225.295 76.366C225.559 76.15 225.691 75.85 225.691 75.466C225.691 75.082 225.559 74.788 225.295 74.584C225.031 74.38 224.659 74.278 224.179 74.278H221.695V76.672ZM230.031 82V72.91H232.263V76.474H233.631L236.295 72.91H238.707L235.359 77.446L234.873 76.744C235.209 76.78 235.503 76.87 235.755 77.014C236.019 77.158 236.265 77.362 236.493 77.626C236.733 77.878 236.967 78.202 237.195 78.598L239.103 82H236.709L235.161 79.264C235.005 78.988 234.849 78.772 234.693 78.616C234.537 78.46 234.363 78.352 234.171 78.292C233.979 78.232 233.745 78.202 233.469 78.202H232.263V82H230.031ZM240.189 86.086L239.667 84.304C240.231 84.184 240.705 84.046 241.089 83.89C241.473 83.734 241.791 83.53 242.043 83.278C242.295 83.026 242.505 82.702 242.673 82.306L243.123 81.244L243.069 82.126L239.109 72.91H241.503L244.347 80.002H243.825L246.687 72.91H248.955L244.815 82.504C244.539 83.152 244.239 83.686 243.915 84.106C243.591 84.538 243.243 84.88 242.871 85.132C242.499 85.396 242.091 85.6 241.647 85.744C241.203 85.888 240.717 86.002 240.189 86.086ZM249.325 82V79.498H251.845V82H249.325Z" fill="white"/>
<path d="M286 55C292.075 55 297 50.0753 297 44C297 37.9247 292.075 33 286 33C279.925 33 275 37.9247 275 44C275 50.0753 279.925 55 286 55Z" fill="white"/>
<path d="M280.5 44.5504L283.8 47.8504L291.5 40.1504" stroke="#0D6FF9" stroke-width="1.5" stroke-linecap="round" stroke-linejoin="round"/>
<defs>
<filter id="filter0_f_147_145" x="0" y="0" width="350" height="151" filterUnits="userSpaceOnUse" color-interpolation-filters="sRGB">
<feFlood flood-opacity="0" result="BackgroundImageFix"/>
<feBlend mode="normal" in="SourceGraphic" in2="BackgroundImageFix" result="shape"/>
<feGaussianBlur stdDeviation="19.5" result="effect1_foregroundBlur_147_145"/>
</filter>
<filter id="filter1_d_147_145" x="6" y="26" width="338" height="139" filterUnits="userSpaceOnUse" color-interpolation-filters="sRGB">
<feFlood flood-opacity="0" result="BackgroundImageFix"/>
<feColorMatrix in="SourceAlpha" type="matrix" values="0 0 0 0 0 0 0 0 0 0 0 0 0 0 0 0 0 0 127 0" result="hardAlpha"/>
<feMorphology radius="7" operator="erode" in="SourceAlpha" result="effect1_dropShadow_147_145"/>
<feOffset dy="20"/>
<feGaussianBlur stdDeviation="20"/>
<feComposite in2="hardAlpha" operator="out"/>
<feColorMatrix type="matrix" values="0 0 0 0 0.0705882 0 0 0 0 0.0705882 0 0 0 0 0.0705882 0 0 0 0.4 0"/>
<feBlend mode="normal" in2="BackgroundImageFix" result="effect1_dropShadow_147_145"/>
<feBlend mode="normal" in="SourceGraphic" in2="effect1_dropShadow_147_145" result="shape"/>
</filter>
<linearGradient id="paint0_linear_147_145" x1="127.022" y1="46.4237" x2="294.526" y2="75.1995" gradientUnits="userSpaceOnUse">
<stop stop-color="#086CF9"/>
<stop offset="1" stop-color="#0F63D9" stop-opacity="0.4"/>
</linearGradient>
<radialGradient id="paint1_radial_147_145" cx="0" cy="0" r="1" gradientUnits="userSpaceOnUse" gradientTransform="translate(39 75) scale(272 1020.95)">
<stop stop-color="white"/>
<stop offset="1" stop-color="white" stop-opacity="0"/>
<stop offset="1" stop-color="white"/>
</radialGradient>
<linearGradient id="paint2_linear_147_145" x1="127.022" y1="46.4237" x2="294.526" y2="75.1995" gradientUnits="userSpaceOnUse">
<stop stop-color="#086CF9"/>
<stop offset="1" stop-color="#0F63D9" stop-opacity="0.4"/>
</linearGradient>
<radialGradient id="paint3_radial_147_145" cx="0" cy="0" r="1" gradientUnits="userSpaceOnUse" gradientTransform="translate(39 75) scale(272 1020.95)">
<stop stop-color="white"/>
<stop offset="1" stop-color="white" stop-opacity="0"/>
<stop offset="1" stop-color="white"/>
</radialGradient>
</defs>
</svg>
