<svg width="85" height="74" viewBox="0 0 85 74" fill="none" xmlns="http://www.w3.org/2000/svg">
<path d="M3.969 26V8.72L5.859 10.61H0.189V7.1H8.343V26H3.969ZM11.4642 26V23.165L18.7542 16.28C19.3302 15.758 19.7532 15.29 20.0232 14.876C20.2932 14.462 20.4732 14.084 20.5632 13.742C20.6712 13.4 20.7252 13.085 20.7252 12.797C20.7252 12.041 20.4642 11.465 19.9422 11.069C19.4382 10.655 18.6912 10.448 17.7012 10.448C16.9092 10.448 16.1712 10.601 15.4872 10.907C14.8212 11.213 14.2542 11.69 13.7862 12.338L10.6002 10.286C11.3202 9.206 12.3282 8.351 13.6242 7.721C14.9202 7.091 16.4142 6.776 18.1062 6.776C19.5102 6.776 20.7342 7.01 21.7782 7.478C22.8402 7.928 23.6592 8.567 24.2352 9.395C24.8292 10.223 25.1262 11.213 25.1262 12.365C25.1262 12.977 25.0452 13.589 24.8832 14.201C24.7392 14.795 24.4332 15.425 23.9652 16.091C23.5152 16.757 22.8492 17.504 21.9672 18.332L15.9192 24.029L15.0822 22.436H25.7472V26H11.4642ZM30.2997 26.216C29.5797 26.216 28.9587 25.973 28.4367 25.487C27.9327 24.983 27.6807 24.344 27.6807 23.57C27.6807 22.796 27.9327 22.175 28.4367 21.707C28.9587 21.221 29.5797 20.978 30.2997 20.978C31.0377 20.978 31.6587 21.221 32.1627 21.707C32.6667 22.175 32.9187 22.796 32.9187 23.57C32.9187 24.344 32.6667 24.983 32.1627 25.487C31.6587 25.973 31.0377 26.216 30.2997 26.216ZM41.2748 26.324C39.9608 26.324 38.6558 26.153 37.3598 25.811C36.0638 25.451 34.9658 24.947 34.0658 24.299L35.7668 20.951C36.4868 21.473 37.3238 21.887 38.2778 22.193C39.2318 22.499 40.1948 22.652 41.1668 22.652C42.2648 22.652 43.1288 22.436 43.7588 22.004C44.3888 21.572 44.7038 20.978 44.7038 20.222C44.7038 19.502 44.4248 18.935 43.8668 18.521C43.3088 18.107 42.4088 17.9 41.1668 17.9H39.1688V15.011L44.4338 9.044L44.9198 10.61H35.0108V7.1H48.2408V9.935L43.0028 15.902L40.7888 14.633H42.0578C44.3798 14.633 46.1348 15.155 47.3228 16.199C48.5108 17.243 49.1048 18.584 49.1048 20.222C49.1048 21.284 48.8258 22.283 48.2678 23.219C47.7098 24.137 46.8548 24.884 45.7028 25.46C44.5508 26.036 43.0748 26.324 41.2748 26.324ZM56.2273 21.68L55.9843 16.631L65.0293 7.1H69.8893L61.7353 15.875L59.3053 18.467L56.2273 21.68ZM52.3123 26V7.1H56.6593V26H52.3123ZM65.2453 26L58.5223 17.765L61.3843 14.66L70.3483 26H65.2453Z" fill="white"/>
<path d="M7.65 69.108C6.702 69.108 5.82 68.952 5.004 68.64C4.2 68.316 3.498 67.866 2.898 67.29C2.31 66.702 1.848 66.024 1.512 65.256C1.188 64.476 1.026 63.624 1.026 62.7C1.026 61.776 1.188 60.93 1.512 60.162C1.848 59.382 2.31 58.704 2.898 58.128C3.498 57.54 4.2 57.09 5.004 56.778C5.808 56.454 6.69 56.292 7.65 56.292C8.598 56.292 9.474 56.454 10.278 56.778C11.082 57.09 11.778 57.534 12.366 58.11C12.966 58.686 13.428 59.364 13.752 60.144C14.088 60.924 14.256 61.776 14.256 62.7C14.256 63.624 14.088 64.476 13.752 65.256C13.428 66.036 12.966 66.714 12.366 67.29C11.778 67.866 11.082 68.316 10.278 68.64C9.474 68.952 8.598 69.108 7.65 69.108ZM7.65 67.92C8.406 67.92 9.102 67.794 9.738 67.542C10.386 67.278 10.944 66.912 11.412 66.444C11.892 65.964 12.264 65.412 12.528 64.788C12.792 64.152 12.924 63.456 12.924 62.7C12.924 61.944 12.792 61.254 12.528 60.63C12.264 59.994 11.892 59.442 11.412 58.974C10.944 58.494 10.386 58.128 9.738 57.876C9.102 57.612 8.406 57.48 7.65 57.48C6.894 57.48 6.192 57.612 5.544 57.876C4.896 58.128 4.332 58.494 3.852 58.974C3.384 59.442 3.012 59.994 2.736 60.63C2.472 61.254 2.34 61.944 2.34 62.7C2.34 63.444 2.472 64.134 2.736 64.77C3.012 65.406 3.384 65.964 3.852 66.444C4.332 66.912 4.896 67.278 5.544 67.542C6.192 67.794 6.894 67.92 7.65 67.92ZM18.6649 69V60.324L18.9889 60.666H15.0829V59.55H23.5249V60.666H19.6189L19.9429 60.324V69H18.6649ZM27.647 69.108C26.963 69.108 26.285 69.012 25.613 68.82C24.941 68.628 24.347 68.334 23.831 67.938L24.245 66.984C24.701 67.32 25.229 67.578 25.829 67.758C26.429 67.926 27.023 68.01 27.611 68.01C28.199 67.998 28.709 67.914 29.141 67.758C29.573 67.602 29.909 67.386 30.149 67.11C30.389 66.834 30.509 66.522 30.509 66.174C30.509 65.67 30.281 65.28 29.825 65.004C29.369 64.716 28.745 64.572 27.953 64.572H26.333V63.636H27.863C28.331 63.636 28.745 63.576 29.105 63.456C29.465 63.336 29.741 63.162 29.933 62.934C30.137 62.706 30.239 62.436 30.239 62.124C30.239 61.788 30.119 61.5 29.879 61.26C29.651 61.02 29.333 60.84 28.925 60.72C28.517 60.6 28.055 60.54 27.539 60.54C27.071 60.552 26.585 60.624 26.081 60.756C25.577 60.876 25.079 61.062 24.587 61.314L24.227 60.324C24.779 60.036 25.325 59.82 25.865 59.676C26.417 59.52 26.969 59.442 27.521 59.442C28.277 59.418 28.955 59.508 29.555 59.712C30.167 59.916 30.653 60.21 31.013 60.594C31.373 60.966 31.553 61.416 31.553 61.944C31.553 62.412 31.409 62.82 31.121 63.168C30.833 63.516 30.449 63.786 29.969 63.978C29.489 64.17 28.943 64.266 28.331 64.266L28.385 63.924C29.465 63.924 30.305 64.134 30.905 64.554C31.517 64.974 31.823 65.544 31.823 66.264C31.823 66.828 31.637 67.326 31.265 67.758C30.893 68.178 30.389 68.508 29.753 68.748C29.129 68.988 28.427 69.108 27.647 69.108ZM43.9403 69V59.55H45.2183V69H43.9403ZM38.7023 62.88C39.8903 62.892 40.7963 63.156 41.4203 63.672C42.0443 64.188 42.3563 64.932 42.3563 65.904C42.3563 66.912 42.0203 67.686 41.3483 68.226C40.6763 68.766 39.7163 69.03 38.4683 69.018L34.7243 69V59.55H36.0023V62.844L38.7023 62.88ZM38.3783 68.046C39.2663 68.058 39.9323 67.884 40.3763 67.524C40.8323 67.152 41.0603 66.612 41.0603 65.904C41.0603 65.196 40.8383 64.68 40.3943 64.356C39.9503 64.02 39.2783 63.846 38.3783 63.834L36.0023 63.798V68.01L38.3783 68.046ZM48.8571 69V59.55H53.0331C54.1011 59.55 54.9411 59.754 55.5531 60.162C56.1771 60.57 56.4891 61.17 56.4891 61.962C56.4891 62.73 56.1951 63.324 55.6071 63.744C55.0191 64.152 54.2451 64.356 53.2851 64.356L53.5371 63.978C54.6651 63.978 55.4931 64.188 56.0211 64.608C56.5491 65.028 56.8131 65.634 56.8131 66.426C56.8131 67.242 56.5131 67.878 55.9131 68.334C55.3251 68.778 54.4071 69 53.1591 69H48.8571ZM50.0991 67.992H53.1051C53.9091 67.992 54.5151 67.866 54.9231 67.614C55.3431 67.35 55.5531 66.93 55.5531 66.354C55.5531 65.778 55.3671 65.358 54.9951 65.094C54.6231 64.83 54.0351 64.698 53.2311 64.698H50.0991V67.992ZM50.0991 63.744H52.9431C53.6751 63.744 54.2331 63.606 54.6171 63.33C55.0131 63.054 55.2111 62.652 55.2111 62.124C55.2111 61.596 55.0131 61.2 54.6171 60.936C54.2331 60.672 53.6751 60.54 52.9431 60.54H50.0991V63.744ZM63.6962 69.09C62.7842 69.09 61.9622 68.886 61.2302 68.478C60.5102 68.058 59.9402 67.488 59.5202 66.768C59.1002 66.036 58.8902 65.202 58.8902 64.266C58.8902 63.318 59.1002 62.484 59.5202 61.764C59.9402 61.044 60.5102 60.48 61.2302 60.072C61.9502 59.664 62.7722 59.46 63.6962 59.46C64.6322 59.46 65.4602 59.664 66.1802 60.072C66.9122 60.48 67.4822 61.044 67.8902 61.764C68.3102 62.484 68.5202 63.318 68.5202 64.266C68.5202 65.202 68.3102 66.036 67.8902 66.768C67.4822 67.488 66.9122 68.058 66.1802 68.478C65.4482 68.886 64.6202 69.09 63.6962 69.09ZM63.6962 67.956C64.3802 67.956 64.9862 67.806 65.5142 67.506C66.0422 67.194 66.4562 66.762 66.7562 66.21C67.0682 65.646 67.2242 64.998 67.2242 64.266C67.2242 63.522 67.0682 62.874 66.7562 62.322C66.4562 61.77 66.0422 61.344 65.5142 61.044C64.9862 60.732 64.3862 60.576 63.7142 60.576C63.0422 60.576 62.4422 60.732 61.9142 61.044C61.3862 61.344 60.9662 61.77 60.6542 62.322C60.3422 62.874 60.1862 63.522 60.1862 64.266C60.1862 64.998 60.3422 65.646 60.6542 66.21C60.9662 66.762 61.3862 67.194 61.9142 67.506C62.4422 67.806 63.0362 67.956 63.6962 67.956ZM71.2516 69V59.55H75.4276C76.4956 59.55 77.3356 59.754 77.9476 60.162C78.5716 60.57 78.8836 61.17 78.8836 61.962C78.8836 62.73 78.5896 63.324 78.0016 63.744C77.4136 64.152 76.6396 64.356 75.6796 64.356L75.9316 63.978C77.0596 63.978 77.8876 64.188 78.4156 64.608C78.9436 65.028 79.2076 65.634 79.2076 66.426C79.2076 67.242 78.9076 67.878 78.3076 68.334C77.7196 68.778 76.8016 69 75.5536 69H71.2516ZM72.4936 67.992H75.4996C76.3036 67.992 76.9096 67.866 77.3176 67.614C77.7376 67.35 77.9476 66.93 77.9476 66.354C77.9476 65.778 77.7616 65.358 77.3896 65.094C77.0176 64.83 76.4296 64.698 75.6256 64.698H72.4936V67.992ZM72.4936 63.744H75.3376C76.0696 63.744 76.6276 63.606 77.0116 63.33C77.4076 63.054 77.6056 62.652 77.6056 62.124C77.6056 61.596 77.4076 61.2 77.0116 60.936C76.6276 60.672 76.0696 60.54 75.3376 60.54H72.4936V63.744ZM82.2928 69.09C82.0288 69.09 81.8008 68.994 81.6088 68.802C81.4288 68.61 81.3388 68.376 81.3388 68.1C81.3388 67.812 81.4288 67.578 81.6088 67.398C81.8008 67.218 82.0288 67.128 82.2928 67.128C82.5568 67.128 82.7788 67.218 82.9588 67.398C83.1508 67.578 83.2468 67.812 83.2468 68.1C83.2468 68.376 83.1508 68.61 82.9588 68.802C82.7788 68.994 82.5568 69.09 82.2928 69.09Z" fill="white" fill-opacity="0.6"/>
</svg>
