<svg width="206" height="206" viewBox="0 0 206 206" fill="none" xmlns="http://www.w3.org/2000/svg">
<g filter="url(#filter0_f_81_52)">
<circle cx="103" cy="103" r="25" fill="white"/>
</g>
<circle cx="103" cy="103" r="25" fill="white"/>
<path d="M102.624 112.24C101.44 112.24 100.28 112.072 99.144 111.736C98.024 111.384 97.08 110.904 96.312 110.296L97.632 107.872C98.24 108.368 98.976 108.768 99.84 109.072C100.72 109.376 101.632 109.528 102.576 109.528C103.68 109.528 104.544 109.296 105.168 108.832C105.808 108.368 106.128 107.744 106.128 106.96C106.128 106.432 105.992 105.968 105.72 105.568C105.464 105.168 105 104.864 104.328 104.656C103.672 104.448 102.768 104.344 101.616 104.344H97.56L98.424 95.2H108.288V97.816H99.576L101.208 96.328L100.56 103.168L98.928 101.704H102.312C103.976 101.704 105.312 101.928 106.32 102.376C107.344 102.808 108.088 103.416 108.552 104.2C109.032 104.968 109.272 105.848 109.272 106.84C109.272 107.816 109.032 108.712 108.552 109.528C108.072 110.344 107.336 111 106.344 111.496C105.368 111.992 104.128 112.24 102.624 112.24Z" fill="black"/>
<defs>
<filter id="filter0_f_81_52" x="0" y="0" width="206" height="206" filterUnits="userSpaceOnUse" color-interpolation-filters="sRGB">
<feFlood flood-opacity="0" result="BackgroundImageFix"/>
<feBlend mode="normal" in="SourceGraphic" in2="BackgroundImageFix" result="shape"/>
<feGaussianBlur stdDeviation="39" result="effect1_foregroundBlur_81_52"/>
</filter>
</defs>
</svg>
