<svg width="32" height="32" viewBox="0 0 32 32" fill="none" xmlns="http://www.w3.org/2000/svg">
<g clip-path="url(#clip0_21_211)">
<path d="M16 13.0909V19.2872H24.6109C24.2328 21.28 23.0981 22.9673 21.3963 24.1018L26.589 28.1309C29.6144 25.3383 31.3599 21.2365 31.3599 16.3637C31.3599 15.2292 31.2581 14.1382 31.069 13.091L16 13.0909Z" fill="#4285F4"/>
<path d="M7.03298 19.0454L5.86183 19.9419L1.71631 23.1709C4.34903 28.3927 9.74499 32 15.9995 32C20.3194 32 23.9411 30.5745 26.5885 28.131L21.3958 24.1018C19.9703 25.0618 18.1521 25.6437 15.9995 25.6437C11.8395 25.6437 8.30507 22.8365 7.03952 19.0546L7.03298 19.0454Z" fill="#34A853"/>
<path d="M1.71624 8.82909C0.625389 10.9817 0 13.4109 0 15.9999C0 18.5889 0.625389 21.0181 1.71624 23.1707C1.71624 23.1852 7.03997 19.0398 7.03997 19.0398C6.71997 18.0798 6.53082 17.0617 6.53082 15.9997C6.53082 14.9378 6.71997 13.9197 7.03997 12.9597L1.71624 8.82909Z" fill="#FBBC05"/>
<path d="M15.9998 6.3709C18.3562 6.3709 20.4507 7.18543 22.1235 8.75636L26.7052 4.1746C23.927 1.58555 20.3199 0 15.9998 0C9.74532 0 4.34903 3.59272 1.71631 8.8291L7.03987 12.96C8.30525 9.17816 11.8398 6.3709 15.9998 6.3709Z" fill="#EA4335"/>
</g>
<defs>
<clipPath id="clip0_21_211">
<rect width="32" height="32" fill="white"/>
</clipPath>
</defs>
</svg>
