<svg width="350" height="165" viewBox="0 0 350 165" fill="none" xmlns="http://www.w3.org/2000/svg">
<g filter="url(#filter0_f_71_34)">
<rect x="39" y="39" width="272" height="73" rx="12" fill="url(#paint0_linear_71_34)"/>
<rect x="39" y="39" width="272" height="73" rx="12" fill="url(#paint1_radial_71_34)" fill-opacity="0.02"/>
</g>
<g filter="url(#filter1_d_71_34)">
<rect x="39" y="39" width="272" height="73" rx="12" fill="url(#paint2_linear_71_34)" shape-rendering="crispEdges"/>
<rect x="39" y="39" width="272" height="73" rx="12" fill="url(#paint3_radial_71_34)" fill-opacity="0.02" shape-rendering="crispEdges"/>
</g>
<path d="M123.766 82V69.31H134.872V82H132.568V71.2H126.052V82H123.766ZM141.721 82.18C140.785 82.18 139.975 81.988 139.291 81.604C138.607 81.22 138.073 80.674 137.689 79.966C137.317 79.258 137.131 78.418 137.131 77.446C137.131 76.474 137.317 75.64 137.689 74.944C138.073 74.236 138.607 73.69 139.291 73.306C139.975 72.922 140.785 72.73 141.721 72.73C142.657 72.73 143.467 72.922 144.151 73.306C144.847 73.69 145.381 74.236 145.753 74.944C146.137 75.64 146.329 76.474 146.329 77.446C146.329 78.418 146.137 79.258 145.753 79.966C145.381 80.674 144.847 81.22 144.151 81.604C143.467 81.988 142.657 82.18 141.721 82.18ZM141.721 80.452C142.429 80.452 142.993 80.206 143.413 79.714C143.833 79.21 144.043 78.454 144.043 77.446C144.043 76.438 143.833 75.688 143.413 75.196C142.993 74.704 142.429 74.458 141.721 74.458C141.013 74.458 140.449 74.704 140.029 75.196C139.609 75.688 139.399 76.438 139.399 77.446C139.399 78.454 139.609 79.21 140.029 79.714C140.449 80.206 141.013 80.452 141.721 80.452ZM147.651 84.34V80.29H148.695C149.055 79.726 149.313 79.066 149.469 78.31C149.637 77.542 149.721 76.606 149.721 75.502V72.91H156.723V80.29H158.199V84.34H156.291V82H149.559V84.34H147.651ZM150.711 80.308H154.617V74.602H151.629V76.006C151.629 76.81 151.551 77.596 151.395 78.364C151.239 79.132 151.011 79.78 150.711 80.308ZM159.923 85.888V75.178C159.923 74.806 159.911 74.428 159.887 74.044C159.863 73.66 159.827 73.282 159.779 72.91H161.957L162.155 74.818H161.957C162.137 74.182 162.515 73.678 163.091 73.306C163.679 72.922 164.357 72.73 165.125 72.73C165.929 72.73 166.631 72.922 167.231 73.306C167.831 73.678 168.299 74.218 168.635 74.926C168.971 75.622 169.139 76.462 169.139 77.446C169.139 78.43 168.971 79.276 168.635 79.984C168.299 80.692 167.831 81.238 167.231 81.622C166.631 81.994 165.929 82.18 165.125 82.18C164.369 82.18 163.703 81.994 163.127 81.622C162.551 81.25 162.167 80.752 161.975 80.128H162.173V85.888H159.923ZM164.495 80.452C165.215 80.452 165.791 80.206 166.223 79.714C166.655 79.21 166.871 78.454 166.871 77.446C166.871 76.438 166.655 75.688 166.223 75.196C165.791 74.704 165.215 74.458 164.495 74.458C163.787 74.458 163.217 74.704 162.785 75.196C162.353 75.688 162.137 76.438 162.137 77.446C162.137 78.454 162.353 79.21 162.785 79.714C163.217 80.206 163.787 80.452 164.495 80.452ZM175.435 82.18C174.499 82.18 173.689 81.988 173.005 81.604C172.321 81.22 171.787 80.674 171.403 79.966C171.031 79.258 170.845 78.418 170.845 77.446C170.845 76.474 171.031 75.64 171.403 74.944C171.787 74.236 172.321 73.69 173.005 73.306C173.689 72.922 174.499 72.73 175.435 72.73C176.371 72.73 177.181 72.922 177.865 73.306C178.561 73.69 179.095 74.236 179.467 74.944C179.851 75.64 180.043 76.474 180.043 77.446C180.043 78.418 179.851 79.258 179.467 79.966C179.095 80.674 178.561 81.22 177.865 81.604C177.181 81.988 176.371 82.18 175.435 82.18ZM175.435 80.452C176.143 80.452 176.707 80.206 177.127 79.714C177.547 79.21 177.757 78.454 177.757 77.446C177.757 76.438 177.547 75.688 177.127 75.196C176.707 74.704 176.143 74.458 175.435 74.458C174.727 74.458 174.163 74.704 173.743 75.196C173.323 75.688 173.113 76.438 173.113 77.446C173.113 78.454 173.323 79.21 173.743 79.714C174.163 80.206 174.727 80.452 175.435 80.452ZM186.441 82.18C185.013 82.18 183.873 81.748 183.021 80.884C182.181 80.02 181.761 78.754 181.761 77.086V75.538C181.761 73.822 182.151 72.442 182.931 71.398C183.711 70.354 184.887 69.664 186.459 69.328L189.789 68.572L190.401 70.336L186.657 71.164C186.033 71.296 185.517 71.548 185.109 71.92C184.701 72.28 184.395 72.712 184.191 73.216C183.987 73.72 183.885 74.26 183.885 74.836V75.79H183.579C183.711 75.25 183.933 74.782 184.245 74.386C184.557 73.978 184.953 73.66 185.433 73.432C185.913 73.204 186.459 73.09 187.071 73.09C187.839 73.09 188.511 73.27 189.087 73.63C189.675 73.978 190.137 74.488 190.473 75.16C190.809 75.82 190.977 76.612 190.977 77.536C190.977 78.484 190.785 79.306 190.401 80.002C190.029 80.698 189.501 81.238 188.817 81.622C188.145 81.994 187.353 82.18 186.441 82.18ZM186.369 80.47C187.113 80.47 187.689 80.236 188.097 79.768C188.517 79.288 188.727 78.574 188.727 77.626C188.727 76.702 188.517 76 188.097 75.52C187.677 75.028 187.101 74.782 186.369 74.782C185.637 74.782 185.061 75.022 184.641 75.502C184.221 75.982 184.011 76.666 184.011 77.554C184.011 78.526 184.221 79.258 184.641 79.75C185.061 80.23 185.637 80.47 186.369 80.47ZM193.109 82V72.91H195.341V76.474H199.445V72.91H201.677V82H199.445V78.202H195.341V82H193.109ZM208.7 82.18C207.176 82.18 205.982 81.76 205.118 80.92C204.254 80.08 203.822 78.928 203.822 77.464C203.822 76.516 204.008 75.688 204.38 74.98C204.752 74.272 205.268 73.72 205.928 73.324C206.6 72.928 207.38 72.73 208.268 72.73C209.144 72.73 209.876 72.916 210.464 73.288C211.052 73.66 211.496 74.182 211.796 74.854C212.108 75.526 212.264 76.312 212.264 77.212V77.806H205.64V76.618H210.662L210.356 76.87C210.356 76.03 210.176 75.388 209.816 74.944C209.468 74.5 208.958 74.278 208.286 74.278C207.542 74.278 206.966 74.542 206.558 75.07C206.162 75.598 205.964 76.336 205.964 77.284V77.518C205.964 78.502 206.204 79.24 206.684 79.732C207.176 80.212 207.866 80.452 208.754 80.452C209.27 80.452 209.75 80.386 210.194 80.254C210.65 80.11 211.082 79.882 211.49 79.57L212.156 81.082C211.724 81.43 211.208 81.7 210.608 81.892C210.008 82.084 209.372 82.18 208.7 82.18ZM218.807 82.18C217.283 82.18 216.089 81.76 215.225 80.92C214.361 80.08 213.929 78.928 213.929 77.464C213.929 76.516 214.115 75.688 214.487 74.98C214.859 74.272 215.375 73.72 216.035 73.324C216.707 72.928 217.487 72.73 218.375 72.73C219.251 72.73 219.983 72.916 220.571 73.288C221.159 73.66 221.603 74.182 221.903 74.854C222.215 75.526 222.371 76.312 222.371 77.212V77.806H215.747V76.618H220.769L220.463 76.87C220.463 76.03 220.283 75.388 219.923 74.944C219.575 74.5 219.065 74.278 218.393 74.278C217.649 74.278 217.073 74.542 216.665 75.07C216.269 75.598 216.071 76.336 216.071 77.284V77.518C216.071 78.502 216.311 79.24 216.791 79.732C217.283 80.212 217.973 80.452 218.861 80.452C219.377 80.452 219.857 80.386 220.301 80.254C220.757 80.11 221.189 79.882 221.597 79.57L222.263 81.082C221.831 81.43 221.315 81.7 220.715 81.892C220.115 82.084 219.479 82.18 218.807 82.18ZM224.145 82V79.498H226.665V82H224.145Z" fill="white"/>
<path d="M286 55C292.075 55 297 50.0753 297 44C297 37.9247 292.075 33 286 33C279.925 33 275 37.9247 275 44C275 50.0753 279.925 55 286 55Z" fill="white"/>
<path d="M280.5 44.5504L283.8 47.8504L291.5 40.1504" stroke="#0D6FF9" stroke-width="1.5" stroke-linecap="round" stroke-linejoin="round"/>
<defs>
<filter id="filter0_f_71_34" x="0" y="0" width="350" height="151" filterUnits="userSpaceOnUse" color-interpolation-filters="sRGB">
<feFlood flood-opacity="0" result="BackgroundImageFix"/>
<feBlend mode="normal" in="SourceGraphic" in2="BackgroundImageFix" result="shape"/>
<feGaussianBlur stdDeviation="19.5" result="effect1_foregroundBlur_71_34"/>
</filter>
<filter id="filter1_d_71_34" x="6" y="26" width="338" height="139" filterUnits="userSpaceOnUse" color-interpolation-filters="sRGB">
<feFlood flood-opacity="0" result="BackgroundImageFix"/>
<feColorMatrix in="SourceAlpha" type="matrix" values="0 0 0 0 0 0 0 0 0 0 0 0 0 0 0 0 0 0 127 0" result="hardAlpha"/>
<feMorphology radius="7" operator="erode" in="SourceAlpha" result="effect1_dropShadow_71_34"/>
<feOffset dy="20"/>
<feGaussianBlur stdDeviation="20"/>
<feComposite in2="hardAlpha" operator="out"/>
<feColorMatrix type="matrix" values="0 0 0 0 0.0705882 0 0 0 0 0.0705882 0 0 0 0 0.0705882 0 0 0 0.4 0"/>
<feBlend mode="normal" in2="BackgroundImageFix" result="effect1_dropShadow_71_34"/>
<feBlend mode="normal" in="SourceGraphic" in2="effect1_dropShadow_71_34" result="shape"/>
</filter>
<linearGradient id="paint0_linear_71_34" x1="127.022" y1="46.4237" x2="294.526" y2="75.1995" gradientUnits="userSpaceOnUse">
<stop stop-color="#086CF9"/>
<stop offset="1" stop-color="#0F63D9" stop-opacity="0.4"/>
</linearGradient>
<radialGradient id="paint1_radial_71_34" cx="0" cy="0" r="1" gradientUnits="userSpaceOnUse" gradientTransform="translate(39 75) scale(272 1020.95)">
<stop stop-color="white"/>
<stop offset="1" stop-color="white" stop-opacity="0"/>
<stop offset="1" stop-color="white"/>
</radialGradient>
<linearGradient id="paint2_linear_71_34" x1="127.022" y1="46.4237" x2="294.526" y2="75.1995" gradientUnits="userSpaceOnUse">
<stop stop-color="#086CF9"/>
<stop offset="1" stop-color="#0F63D9" stop-opacity="0.4"/>
</linearGradient>
<radialGradient id="paint3_radial_71_34" cx="0" cy="0" r="1" gradientUnits="userSpaceOnUse" gradientTransform="translate(39 75) scale(272 1020.95)">
<stop stop-color="white"/>
<stop offset="1" stop-color="white" stop-opacity="0"/>
<stop offset="1" stop-color="white"/>
</radialGradient>
</defs>
</svg>
