<svg width="206" height="206" viewBox="0 0 206 206" fill="none" xmlns="http://www.w3.org/2000/svg">
<g filter="url(#filter0_f_81_53)">
<circle cx="103" cy="103" r="25" fill="white"/>
</g>
<circle cx="103" cy="103" r="25" fill="white"/>
<path d="M103.328 112.24C101.808 112.24 100.504 111.92 99.416 111.28C98.328 110.624 97.496 109.68 96.92 108.448C96.344 107.216 96.056 105.696 96.056 103.888C96.056 101.968 96.4 100.344 97.088 99.016C97.792 97.688 98.76 96.68 99.992 95.992C101.24 95.304 102.672 94.96 104.288 94.96C105.136 94.96 105.944 95.048 106.712 95.224C107.496 95.4 108.16 95.672 108.704 96.04L107.552 98.392C107.088 98.088 106.584 97.88 106.04 97.768C105.512 97.64 104.952 97.576 104.36 97.576C102.776 97.576 101.52 98.064 100.592 99.04C99.664 100.016 99.2 101.456 99.2 103.36C99.2 103.664 99.208 104.024 99.224 104.44C99.24 104.84 99.296 105.248 99.392 105.664L98.432 104.608C98.72 103.952 99.112 103.408 99.608 102.976C100.12 102.528 100.72 102.192 101.408 101.968C102.112 101.744 102.872 101.632 103.688 101.632C104.792 101.632 105.776 101.848 106.64 102.28C107.504 102.696 108.192 103.296 108.704 104.08C109.216 104.848 109.472 105.752 109.472 106.792C109.472 107.896 109.2 108.856 108.656 109.672C108.112 110.488 107.376 111.12 106.448 111.568C105.52 112.016 104.48 112.24 103.328 112.24ZM103.16 109.792C103.8 109.792 104.368 109.68 104.864 109.456C105.36 109.216 105.744 108.88 106.016 108.448C106.304 108.016 106.448 107.512 106.448 106.936C106.448 106.056 106.144 105.36 105.536 104.848C104.928 104.336 104.112 104.08 103.088 104.08C102.416 104.08 101.824 104.208 101.312 104.464C100.816 104.704 100.416 105.04 100.112 105.472C99.824 105.904 99.68 106.4 99.68 106.96C99.68 107.472 99.816 107.944 100.088 108.376C100.36 108.808 100.752 109.152 101.264 109.408C101.792 109.664 102.424 109.792 103.16 109.792Z" fill="black"/>
<defs>
<filter id="filter0_f_81_53" x="0" y="0" width="206" height="206" filterUnits="userSpaceOnUse" color-interpolation-filters="sRGB">
<feFlood flood-opacity="0" result="BackgroundImageFix"/>
<feBlend mode="normal" in="SourceGraphic" in2="BackgroundImageFix" result="shape"/>
<feGaussianBlur stdDeviation="39" result="effect1_foregroundBlur_81_53"/>
</filter>
</defs>
</svg>
