<svg width="350" height="165" viewBox="0 0 350 165" fill="none" xmlns="http://www.w3.org/2000/svg">
<g filter="url(#filter0_f_147_145)">
<rect x="39" y="39" width="272" height="73" rx="12" fill="url(#paint0_linear_147_145)"/>
<rect x="39" y="39" width="272" height="73" rx="12" fill="url(#paint1_radial_147_145)" fill-opacity="0.02"/>
</g>
<g filter="url(#filter1_d_147_145)">
<rect x="39" y="39" width="272" height="73" rx="12" fill="url(#paint2_linear_147_145)" shape-rendering="crispEdges"/>
<rect x="39" y="39" width="272" height="73" rx="12" fill="url(#paint3_radial_147_145)" fill-opacity="0.02" shape-rendering="crispEdges"/>
</g>
<path d="M134.363 82.18C133.043 82.18 131.909 81.916 130.961 81.388C130.025 80.848 129.305 80.092 128.801 79.12C128.297 78.136 128.045 76.978 128.045 75.646C128.045 74.314 128.297 73.162 128.801 72.19C129.305 71.218 130.025 70.468 130.961 69.94C131.909 69.4 133.043 69.13 134.363 69.13C135.251 69.13 136.049 69.256 136.757 69.508C137.477 69.76 138.095 70.132 138.611 70.624L137.855 72.46C137.291 72.004 136.745 71.68 136.217 71.488C135.701 71.284 135.107 71.182 134.435 71.182C133.151 71.182 132.167 71.572 131.483 72.352C130.811 73.12 130.475 74.218 130.475 75.646C130.475 77.074 130.811 78.178 131.483 78.958C132.167 79.738 133.151 80.128 134.435 80.128C135.107 80.128 135.701 80.032 136.217 79.84C136.745 79.636 137.291 79.3 137.855 78.832L138.611 80.668C138.095 81.148 137.477 81.52 136.757 81.784C136.049 82.048 135.251 82.18 134.363 82.18ZM140.655 82V72.91H145.497C146.637 72.91 147.471 73.12 147.999 73.54C148.527 73.948 148.791 74.53 148.791 75.286C148.791 75.862 148.599 76.342 148.215 76.726C147.831 77.11 147.321 77.35 146.685 77.446V77.194C147.465 77.242 148.065 77.47 148.485 77.878C148.905 78.286 149.115 78.814 149.115 79.462C149.115 80.242 148.815 80.86 148.215 81.316C147.615 81.772 146.763 82 145.659 82H140.655ZM142.743 80.614H145.425C145.953 80.614 146.355 80.506 146.631 80.29C146.919 80.074 147.063 79.756 147.063 79.336C147.063 78.916 146.919 78.598 146.631 78.382C146.355 78.166 145.953 78.058 145.425 78.058H142.743V80.614ZM142.743 76.672H145.227C145.707 76.672 146.079 76.57 146.343 76.366C146.607 76.15 146.739 75.85 146.739 75.466C146.739 75.082 146.607 74.788 146.343 74.584C146.079 74.38 145.707 74.278 145.227 74.278H142.743V76.672ZM150.323 82L151.709 79.606C151.949 79.198 152.243 78.874 152.591 78.634C152.951 78.382 153.323 78.256 153.707 78.256H154.103L154.085 78.454C153.017 78.454 152.195 78.22 151.619 77.752C151.043 77.284 150.755 76.6 150.755 75.7C150.755 74.812 151.049 74.128 151.637 73.648C152.237 73.156 153.113 72.91 154.265 72.91H158.783V82H156.731V78.796H155.705C155.333 78.796 155.003 78.898 154.715 79.102C154.439 79.306 154.205 79.57 154.013 79.894L152.825 82H150.323ZM154.697 77.338H156.731V74.368H154.697C154.085 74.368 153.623 74.5 153.311 74.764C153.011 75.028 152.861 75.388 152.861 75.844C152.861 76.324 153.011 76.696 153.311 76.96C153.623 77.212 154.085 77.338 154.697 77.338ZM164.692 82.18C163.876 82.18 163.108 82.084 162.388 81.892C161.68 81.7 161.086 81.424 160.606 81.064L161.236 79.588C161.68 79.912 162.196 80.158 162.784 80.326C163.384 80.494 164.014 80.578 164.674 80.578C165.442 80.578 166 80.476 166.348 80.272C166.708 80.056 166.888 79.744 166.888 79.336C166.888 78.952 166.75 78.664 166.474 78.472C166.198 78.268 165.79 78.166 165.25 78.166H162.892V76.618H165.034C165.526 76.618 165.904 76.522 166.168 76.33C166.432 76.138 166.564 75.868 166.564 75.52C166.564 75.148 166.402 74.854 166.078 74.638C165.766 74.422 165.25 74.314 164.53 74.314C163.906 74.314 163.336 74.392 162.82 74.548C162.304 74.692 161.818 74.908 161.362 75.196L160.75 73.792C161.242 73.444 161.836 73.18 162.532 73C163.24 72.82 164.008 72.73 164.836 72.73C166.048 72.73 166.978 72.952 167.626 73.396C168.274 73.84 168.598 74.47 168.598 75.286C168.598 75.838 168.406 76.312 168.022 76.708C167.65 77.104 167.146 77.35 166.51 77.446V77.194C167.254 77.242 167.842 77.464 168.274 77.86C168.706 78.256 168.922 78.79 168.922 79.462C168.922 80.29 168.556 80.95 167.824 81.442C167.092 81.934 166.048 82.18 164.692 82.18ZM174.471 82.18C173.679 82.18 172.983 81.994 172.383 81.622C171.783 81.238 171.315 80.692 170.979 79.984C170.643 79.276 170.475 78.43 170.475 77.446C170.475 76.462 170.643 75.622 170.979 74.926C171.315 74.218 171.783 73.678 172.383 73.306C172.983 72.922 173.679 72.73 174.471 72.73C175.239 72.73 175.911 72.922 176.487 73.306C177.075 73.678 177.465 74.182 177.657 74.818H177.459L177.657 72.91H179.817C179.781 73.282 179.745 73.66 179.709 74.044C179.685 74.428 179.673 74.806 179.673 75.178V82H177.441L177.423 80.128H177.639C177.447 80.752 177.057 81.25 176.469 81.622C175.881 81.994 175.215 82.18 174.471 82.18ZM175.101 80.452C175.809 80.452 176.379 80.206 176.811 79.714C177.243 79.21 177.459 78.454 177.459 77.446C177.459 76.438 177.243 75.688 176.811 75.196C176.379 74.704 175.809 74.458 175.101 74.458C174.393 74.458 173.823 74.704 173.391 75.196C172.959 75.688 172.743 76.438 172.743 77.446C172.743 78.454 172.953 79.21 173.373 79.714C173.805 80.206 174.381 80.452 175.101 80.452ZM184.26 82V74.674H181.146V72.91H189.624V74.674H186.492V82H184.26ZM191.016 82V72.91H193.248V75.952H195.642C196.854 75.952 197.766 76.21 198.378 76.726C198.99 77.23 199.296 77.962 199.296 78.922C199.296 79.546 199.152 80.092 198.864 80.56C198.576 81.016 198.156 81.37 197.604 81.622C197.064 81.874 196.41 82 195.642 82H191.016ZM193.248 80.524H195.336C195.948 80.524 196.416 80.398 196.74 80.146C197.064 79.882 197.226 79.486 197.226 78.958C197.226 78.43 197.064 78.046 196.74 77.806C196.428 77.554 195.96 77.428 195.336 77.428H193.248V80.524ZM205.424 82.18C204.488 82.18 203.666 81.988 202.958 81.604C202.262 81.22 201.722 80.674 201.338 79.966C200.954 79.246 200.762 78.394 200.762 77.41C200.762 76.426 200.954 75.586 201.338 74.89C201.734 74.194 202.28 73.66 202.976 73.288C203.672 72.916 204.488 72.73 205.424 72.73C206.024 72.73 206.606 72.826 207.17 73.018C207.746 73.198 208.214 73.462 208.574 73.81L207.89 75.376C207.566 75.076 207.2 74.854 206.792 74.71C206.396 74.554 206.006 74.476 205.622 74.476C204.818 74.476 204.188 74.728 203.732 75.232C203.288 75.736 203.066 76.468 203.066 77.428C203.066 78.388 203.288 79.126 203.732 79.642C204.188 80.158 204.818 80.416 205.622 80.416C205.994 80.416 206.378 80.344 206.774 80.2C207.182 80.056 207.554 79.834 207.89 79.534L208.574 81.082C208.202 81.43 207.728 81.7 207.152 81.892C206.588 82.084 206.012 82.18 205.424 82.18ZM209.737 82L211.123 79.606C211.363 79.198 211.657 78.874 212.005 78.634C212.365 78.382 212.737 78.256 213.121 78.256H213.517L213.499 78.454C212.431 78.454 211.609 78.22 211.033 77.752C210.457 77.284 210.169 76.6 210.169 75.7C210.169 74.812 210.463 74.128 211.051 73.648C211.651 73.156 212.527 72.91 213.679 72.91H218.197V82H216.145V78.796H215.119C214.747 78.796 214.417 78.898 214.129 79.102C213.853 79.306 213.619 79.57 213.427 79.894L212.239 82H209.737ZM214.111 77.338H216.145V74.368H214.111C213.499 74.368 213.037 74.5 212.725 74.764C212.425 75.028 212.275 75.388 212.275 75.844C212.275 76.324 212.425 76.696 212.725 76.96C213.037 77.212 213.499 77.338 214.111 77.338ZM220.452 82V79.498H222.972V82H220.452Z" fill="white"/>
<path d="M286 55C292.075 55 297 50.0753 297 44C297 37.9247 292.075 33 286 33C279.925 33 275 37.9247 275 44C275 50.0753 279.925 55 286 55Z" fill="white"/>
<path d="M280.5 44.5504L283.8 47.8504L291.5 40.1504" stroke="#0D6FF9" stroke-width="1.5" stroke-linecap="round" stroke-linejoin="round"/>
<defs>
<filter id="filter0_f_147_145" x="0" y="0" width="350" height="151" filterUnits="userSpaceOnUse" color-interpolation-filters="sRGB">
<feFlood flood-opacity="0" result="BackgroundImageFix"/>
<feBlend mode="normal" in="SourceGraphic" in2="BackgroundImageFix" result="shape"/>
<feGaussianBlur stdDeviation="19.5" result="effect1_foregroundBlur_147_145"/>
</filter>
<filter id="filter1_d_147_145" x="6" y="26" width="338" height="139" filterUnits="userSpaceOnUse" color-interpolation-filters="sRGB">
<feFlood flood-opacity="0" result="BackgroundImageFix"/>
<feColorMatrix in="SourceAlpha" type="matrix" values="0 0 0 0 0 0 0 0 0 0 0 0 0 0 0 0 0 0 127 0" result="hardAlpha"/>
<feMorphology radius="7" operator="erode" in="SourceAlpha" result="effect1_dropShadow_147_145"/>
<feOffset dy="20"/>
<feGaussianBlur stdDeviation="20"/>
<feComposite in2="hardAlpha" operator="out"/>
<feColorMatrix type="matrix" values="0 0 0 0 0.0705882 0 0 0 0 0.0705882 0 0 0 0 0.0705882 0 0 0 0.4 0"/>
<feBlend mode="normal" in2="BackgroundImageFix" result="effect1_dropShadow_147_145"/>
<feBlend mode="normal" in="SourceGraphic" in2="effect1_dropShadow_147_145" result="shape"/>
</filter>
<linearGradient id="paint0_linear_147_145" x1="127.022" y1="46.4237" x2="294.526" y2="75.1995" gradientUnits="userSpaceOnUse">
<stop stop-color="#20262D"/>
<stop offset="1" stop-color="#20262D" stop-opacity="0.4"/>
</linearGradient>
<radialGradient id="paint1_radial_147_145" cx="0" cy="0" r="1" gradientUnits="userSpaceOnUse" gradientTransform="translate(39 75) scale(272 1020.95)">
<stop stop-color="white"/>
<stop offset="1" stop-color="white" stop-opacity="0"/>
<stop offset="1" stop-color="white"/>
</radialGradient>
<linearGradient id="paint2_linear_147_145" x1="127.022" y1="46.4237" x2="294.526" y2="75.1995" gradientUnits="userSpaceOnUse">
<stop stop-color="#20262D"/>
<stop offset="1" stop-color="#565B61" stop-opacity="0.4"/>
</linearGradient>
<radialGradient id="paint3_radial_147_145" cx="0" cy="0" r="1" gradientUnits="userSpaceOnUse" gradientTransform="translate(39 75) scale(272 1020.95)">
<stop stop-color="white"/>
<stop offset="1" stop-color="white" stop-opacity="0"/>
<stop offset="1" stop-color="white"/>
</radialGradient>
</defs>
</svg>
